<?xml version="1.0" standalone="no"?>
<!DOCTYPE svg PUBLIC "-//W3C//DTD SVG 20010904//EN"
 "http://www.w3.org/TR/2001/REC-SVG-20010904/DTD/svg10.dtd">
<svg version="1.0" xmlns="http://www.w3.org/2000/svg"
 width="512.000000pt" height="512.000000pt" viewBox="0 0 512.000000 512.000000"
 preserveAspectRatio="xMidYMid meet">

<g transform="translate(0.000000,512.000000) scale(0.100000,-0.100000)"
fill="#000000" stroke="none">
<path d="M2175 4655 c-18 -17 -25 -35 -25 -60 0 -22 96 -315 236 -718 130
-375 384 -1118 564 -1652 423 -1253 562 -1641 601 -1677 l29 -28 471 0 471 0
29 29 c20 20 29 39 29 61 0 17 -72 223 -159 458 -1420 3808 -1327 3562 -1353
3589 l-21 23 -424 0 -424 0 -24 -25z"/>
<path d="M1630 3377 c-22 -11 -57 -99 -261 -642 -662 -1769 -779 -2091 -779
-2128 0 -28 7 -44 26 -62 l27 -25 463 0 463 0 25 23 c30 26 171 414 415 1149
l153 458 -194 592 c-209 643 -211 648 -280 648 -18 0 -44 -6 -58 -13z"/>
</g>
</svg>
